PathFileType	4	(X/Y/Z)	C:\human.trc
DataRate	CameraRate	NumFrames	NumMarkers	Units	OrigDataRate	OrigDataStartFrame	OrigNumFrames
200.00	200.00	      6	35	mm	200.00	896	      2387
Frame#	Time	HEADF			HEADR			HEADL			RSHO			RELBL			RELBM			RWRISTR			RWRISTU			RMP			LSHO			LELBL			LELBM			LWRISTR			LWRISTU			LMP			RPEL			RHIP			RKNEEO			RANK			RHEEL			RPINKY			RTHUMB			LPEL			LHIP			LKNEEO			LANK			LHEEL			LPINKY			LTHUMB			T1			T7			L5			STERNUP			STERNLOW			SCAP			
		X1	Y1	Z1	X2	Y2	Z2	X3	Y3	Z3	X4	Y4	Z4	X5	Y5	Z5	X6	Y6	Z6	X7	Y7	Z7	X8	Y8	Z8	X9	Y9	Z9	X10	Y10	Z10	X11	Y11	Z11	X12	Y12	Z12	X13	Y13	Z13	X14	Y14	Z14	X15	Y15	Z15	X16	Y16	Z16	X17	Y17	Z17	X18	Y18	Z18	X19	Y19	Z19	X20	Y20	Z20	X21	Y21	Z21	X22	Y22	Z22	X23	Y23	Z23	X24	Y24	Z24	X25	Y25	Z25	X26	Y26	Z26	X27	Y27	Z27	X28	Y28	Z28	X29	Y29	Z29	X30	Y30	Z30	X31	Y31	Z31	X32	Y32	Z32	X33	Y33	Z33	X34	Y34	Z34	X35	Y35	Z35	

896	4.475	-15.35040	-158.06180	718.15234	-90.98295	-82.85140	800.96729	63.02794	-151.10939	736.96576	-133.36758	63.48156	751.01593	-208.01915	25.46675	489.35590	-164.65453	71.14499	472.86850	-135.74628	-127.41940	334.91498	-154.31842	-83.78006	288.79822	-175.30273	-159.79288	260.37305	144.27713	41.61740	752.48419	210.47806	-17.04009	502.15796	162.43483	42.96157	473.54761	119.82802	-144.16209	339.84641	153.05490	-105.18039	299.22501	145.16872	-181.28728	253.84225				-144.54353	486.62241	718.86639	-191.94899	268.76733	404.04993				-74.97941	461.79837	71.28742	-179.46625	335.76086	45.92634	-115.37646	272.78195	54.51350	137.79195	420.24976	682.47052	201.62825	493.52011	684.98346	221.59161	248.52724	419.36902	173.39270	381.84665	87.76324	122.67065	428.29245	58.86738	212.26868	287.50668	50.05743	134.02545	238.72871	52.60672	0.60392	46.20473	848.07770	18.68042	205.08736	894.43793	33.23139	499.64346	836.16809				14.69997	239.11140	672.32385	-113.17831	204.92451	850.44244	
897	4.480	-15.17415	-157.97685	724.76251	-90.97273	-81.90548	807.37213	63.24208	-150.67026	743.40863	-133.31067	64.01810	755.80212	-207.61966	24.48977	494.52744	-165.35361	70.22026	477.91992	-135.68005	-128.86523	340.52719	-154.27737	-84.83385	294.61093	-175.29103	-161.17325	266.04211	144.46124	41.47451	757.68866	210.46446	-17.79537	507.40546	162.23926	42.89512	478.82260	119.96369	-145.33400	345.40042	153.29300	-106.48257	305.10297	145.08037	-183.43391	260.14432				-143.97816	487.26535	720.25952	-191.64490	269.73343	404.58249	-120.56147	427.71286	75.99240	-75.07379	462.06891	71.11699	-179.49777	335.75073	45.91517	-115.38916	272.78467	54.52392	138.22229	420.33200	684.95459	201.34517	493.62137	686.18286	221.48589	249.39987	420.23407	173.41977	381.84018	87.76354	122.82896	428.37271	58.88730	212.25706	287.49637	50.04584	133.97113	238.84985	52.52267	0.74505	47.52064	853.33362	18.76920	206.43726	898.26880	33.18204	500.49026	838.20038				13.83593	239.43152	676.85547	-113.11030	205.86739	854.33356	
898	4.485	-15.03070	-157.56665	731.27063	-90.88805	-81.47086	813.48236	63.38163	-150.14087	749.98260	-133.25200	64.64645	760.76160	-207.42476	23.91764	499.69626	-164.89758	69.68980	482.34622	-135.57190	-130.11897	346.22598	-155.22855	-86.32582	300.79688	-175.72417	-162.88388	271.73392	144.53752	43.34843	762.74432	210.49438	-18.18647	512.67163	164.82550	40.79415	485.00882	119.97338	-146.85033	351.50882	153.05327	-107.95255	310.84851	145.13864	-184.83949	265.95825	-89.20622	430.04224	695.73450	-144.00134	487.81030	721.67914	-191.39793	270.46375	405.07739	-120.57320	427.71063	75.99699	-74.90417	461.79993	71.48832	-179.51971	335.74075	45.89304	-115.43178	273.09723	54.45253	137.99706	420.51340	686.78033	201.29807	493.98199	687.77942	220.97322	249.97945	420.51138	173.46201	381.83035	87.76399	122.85200	428.86563	58.88079	212.19711	287.38773	50.05069	133.95934	238.86272	52.51755	0.41325	48.45417	857.63593	19.02309	208.12842	902.39532	33.21453	501.84723	840.45642				14.49442	239.47211	681.14539	-113.10052	207.04358	858.57813	
899	4.490	-14.75493	-157.18881	738.01587	-90.58342	-80.42577	819.98462	63.61551	-149.72021	756.53613	-133.13535	65.68882	765.85828	-207.01123	23.56907	505.04205	-165.10129	68.44521	487.77029	-135.50217	-131.59929	351.93793	-152.99460	-87.64697	305.43326	-175.33192	-164.24184	277.41956	144.89618	43.82738	767.93884	210.59850	-18.68671	518.31976	164.93594	40.67813	489.32846	120.23006	-147.99104	357.58282	153.18112	-109.30674	316.61826	145.20415	-186.21271	272.10269	-88.91078	431.92847	698.88824	-143.92599	488.92706	723.48755	-191.08223	271.26865	405.53909	-120.60581	427.70599	76.01810	-74.97941	461.79837	71.28742	-179.57552	335.50293	45.89843	-115.39337	272.89334	54.53299	138.28796	420.93063	689.30487	201.37796	494.06842	689.58521	221.23778	250.88907	421.35529	173.50122	381.82916	87.76352	123.03383	428.93097	58.90284	212.23141	287.38315	50.12959	133.94104	238.87816	52.50240	0.55535	47.87960	863.11273	19.45577	209.72316	906.66730	33.43962	502.99875	842.28387				16.03662	239.13950	684.22961	-112.92954	208.46658	862.70917	
900	4.495	-14.58778	-156.86528	744.88910	-90.18773	-79.47127	825.52039	63.70280	-149.35091	763.35272	-132.99728	66.18076	770.97534	-206.78430	22.67491	510.31589	-164.97183	67.82050	493.00061	-135.59834	-132.84151	357.89111	-153.00966	-89.50511	310.35428	-175.17564	-165.93190	283.35260	144.95088	44.79029	773.36212	210.58054	-19.32285	523.85455	165.42099	39.14425	494.93866	120.36797	-148.91118	363.47769	153.55104	-110.60216	322.44366	145.40184	-187.01704	277.87653	-89.00722	432.18805	700.53986	-143.89960	489.42902	724.66730	-190.28885	274.50497	406.24374	-120.09178	428.77063	75.67520	-75.07379	462.06891	71.11699	-179.59671	335.49570	45.88878	-115.45418	273.10086	54.45873	138.45410	421.11465	691.62817	201.20016	494.38290	690.73767	220.70876	251.74547	421.61676	173.54878	381.82721	87.76300	123.26601	429.00766	58.93079	212.18950	287.34796	50.09405	133.91667	238.85020	52.56137	0.91755	51.44555	868.37152	19.21086	211.64319	910.68518	33.50625	504.34109	844.11212				16.12028	239.62752	688.80206	-112.75241	209.65404	867.00305	
901	4.500	-14.42204	-156.55621	751.62140	-89.99502	-78.48960	832.19696	63.92104	-148.80524	770.12952	-132.95512	67.03580	776.16766	-206.58669	21.87438	515.65808	-164.55647	66.96337	497.74734	-135.52847	-134.28218	363.72528	-154.36642	-91.04597	317.36133	-175.16037	-167.36440	289.19482	145.01790	45.56506	778.82861	210.70509	-19.96790	529.32977	165.49466	38.74084	500.17007	120.41621	-150.65846	369.67987	153.63486	-112.04608	328.15430	145.48242	-188.30789	284.27487				-143.64142	489.13147	726.24475	-190.30934	275.67291	406.80750	-120.63857	427.69522	76.00627	-75.07379	462.06891	71.11699	-179.61786	335.48907	45.88218	-115.46293	273.10251	54.46348	138.70296	421.46179	693.92279	201.32938	494.69949	692.74896	220.40814	252.78969	421.89096	174.75075	380.04761	86.39771	123.64809	428.65375	58.98621	212.23027	287.43692	50.08207	133.89366	238.86978	52.42425	0.63139	52.28692	873.89581	19.62556	212.94450	914.97980	33.59288	505.31146	846.18365				16.43277	239.66170	692.48871	-112.89487	211.07289	871.14777	
